<?xml version="1.0" encoding="UTF-8" standalone="no"?>
<!-- Created with Inkscape (http://www.inkscape.org/) -->

<svg
   xmlns:dc="http://purl.org/dc/elements/1.1/"
   xmlns:cc="http://creativecommons.org/ns#"
   xmlns:rdf="http://www.w3.org/1999/02/22-rdf-syntax-ns#"
   xmlns:svg="http://www.w3.org/2000/svg"
   xmlns="http://www.w3.org/2000/svg"
   xmlns:sodipodi="http://sodipodi.sourceforge.net/DTD/sodipodi-0.dtd"
   xmlns:inkscape="http://www.inkscape.org/namespaces/inkscape"
   width="129.22626mm"
   height="50.85305mm"
   viewBox="0 0 457.88831 180.18797"
   id="svg5245"
   version="1.1"
   inkscape:version="0.91 r13725"
   sodipodi:docname="info_sourcing.svg">
  <defs
     id="defs5247" />
  <sodipodi:namedview
     id="base"
     pagecolor="#ffffff"
     bordercolor="#666666"
     borderopacity="1.0"
     inkscape:pageopacity="0.0"
     inkscape:pageshadow="2"
     inkscape:zoom="1.4"
     inkscape:cx="156.4887"
     inkscape:cy="53.116712"
     inkscape:document-units="px"
     inkscape:current-layer="layer1"
     showgrid="false"
     fit-margin-top="0"
     fit-margin-left="0"
     fit-margin-right="0"
     fit-margin-bottom="0"
     inkscape:window-width="1600"
     inkscape:window-height="1148"
     inkscape:window-x="0"
     inkscape:window-y="30"
     inkscape:window-maximized="1" />
  <metadata
     id="metadata5250">
    <rdf:RDF>
      <cc:Work
         rdf:about="">
        <dc:format>image/svg+xml</dc:format>
        <dc:type
           rdf:resource="http://purl.org/dc/dcmitype/StillImage" />
        <dc:title></dc:title>
      </cc:Work>
    </rdf:RDF>
  </metadata>
  <g
     inkscape:label="Layer 1"
     inkscape:groupmode="layer"
     id="layer1"
     transform="translate(-69.071426,-77.533953)">
    <path
       id="path5451"
       d="m 125.35715,208.76969 c -31.038545,0 -56.212531,-8.39895 -56.212531,-18.73751 0,-5.65419 0,-11.83902 0,-18.7375 0,-1.62855 0.814202,-3.17484 1.985298,-4.68438 6.267256,8.06957 28.060587,14.05313 54.227233,14.05313 26.16663,0 47.95996,-5.98356 54.22722,-14.05313 1.17109,1.50954 1.98529,3.05583 1.98529,4.68438 0,5.42538 0,11.18029 0,18.7375 0,10.33856 -25.17852,18.73751 -56.21251,18.73751 z m 0,-37.47501 c -31.038545,0 -56.212531,-8.39894 -56.212531,-18.73751 0,-5.65873 0,-11.83464 0,-18.73751 0,-0.99264 0.375043,-1.95792 0.878321,-2.91397 l 0,0 c 0.283697,-0.59931 0.65874,-1.1894 1.106977,-1.77041 6.267256,8.06503 28.060587,14.05313 54.227233,14.05313 26.16663,0 47.95996,-5.9881 54.22722,-14.05313 0.44824,0.58101 0.82343,1.1711 1.10697,1.77041 l 0,0 c 0.50328,0.95605 0.87832,1.92133 0.87832,2.91397 0,5.42539 0,11.17576 0,18.73751 0,10.33857 -25.17852,18.73751 -56.21251,18.73751 z m 0,-37.47502 c -31.038545,0 -56.212531,-8.3944 -56.212531,-18.73751 0,-2.95994 0,-6.08895 0,-9.36875 0,-2.97824 0,-6.070661 0,-9.368746 0,-10.343112 25.173986,-18.737508 56.212531,-18.737508 31.03399,0 56.21251,8.394396 56.21251,18.737508 0,2.923189 0,6.024536 0,9.368746 0,2.8683 0,5.89207 0,9.36875 0,10.34311 -25.17852,18.73751 -56.21251,18.73751 z m 0,-46.84376 c -20.69544,0 -37.475024,4.185783 -37.475024,9.368754 0,5.182816 16.779584,9.368746 37.475024,9.368746 20.69542,0 37.475,-4.18593 37.475,-9.368746 0,-5.182971 -16.77958,-9.368754 -37.475,-9.368754 z"
       stroke-miterlimit="10"
       inkscape:connector-curvature="0"
       style="fill:#5e889e;stroke:#000000;stroke-width:0.14638677;stroke-miterlimit:10" />
    <text
       xml:space="preserve"
       style="font-style:normal;font-weight:normal;font-size:17.5px;line-height:125%;font-family:sans-serif;letter-spacing:0px;word-spacing:0px;fill:#000000;fill-opacity:1;stroke:none;stroke-width:1px;stroke-linecap:butt;stroke-linejoin:miter;stroke-opacity:1"
       x="75.285713"
       y="226.82985"
       id="text5460"
       sodipodi:linespacing="125%"><tspan
         sodipodi:role="line"
         id="tspan5462"
         x="75.285713"
         y="226.82985">User-driven</tspan><tspan
         sodipodi:role="line"
         x="75.285713"
         y="248.70485"
         id="tspan5495">   reviews</tspan></text>
    <path
       id="path5451-1"
       d="m 262.85716,208.76969 c -31.03855,0 -56.21253,-8.39895 -56.21253,-18.73751 0,-5.65419 0,-11.83902 0,-18.7375 0,-1.62855 0.8142,-3.17484 1.98529,-4.68438 6.26726,8.06957 28.06059,14.05313 54.22724,14.05313 26.16663,0 47.95995,-5.98356 54.22721,-14.05313 1.17109,1.50954 1.98529,3.05583 1.98529,4.68438 0,5.42538 0,11.18029 0,18.7375 0,10.33856 -25.17851,18.73751 -56.2125,18.73751 z m 0,-37.47501 c -31.03855,0 -56.21253,-8.39894 -56.21253,-18.73751 0,-5.65873 0,-11.83464 0,-18.73751 0,-0.99264 0.37504,-1.95792 0.87832,-2.91397 l 0,0 c 0.28369,-0.59931 0.65874,-1.1894 1.10697,-1.77041 6.26726,8.06503 28.06059,14.05313 54.22724,14.05313 26.16663,0 47.95995,-5.9881 54.22721,-14.05313 0.44824,0.58101 0.82343,1.1711 1.10697,1.77041 l 0,0 c 0.50328,0.95605 0.87832,1.92133 0.87832,2.91397 0,5.42539 0,11.17576 0,18.73751 0,10.33857 -25.17851,18.73751 -56.2125,18.73751 z m 0,-37.47502 c -31.03855,0 -56.21253,-8.3944 -56.21253,-18.73751 0,-2.95994 0,-6.08895 0,-9.36875 0,-2.97824 0,-6.070665 0,-9.368745 0,-10.343119 25.17398,-18.737509 56.21253,-18.737509 31.03399,0 56.2125,8.39439 56.2125,18.737509 0,2.92318 0,6.024535 0,9.368745 0,2.8683 0,5.89207 0,9.36875 0,10.34311 -25.17851,18.73751 -56.2125,18.73751 z m 0,-46.843764 c -20.69544,0 -37.47503,4.18578 -37.47503,9.368759 0,5.182815 16.77959,9.368745 37.47503,9.368745 20.69542,0 37.475,-4.18593 37.475,-9.368745 0,-5.182979 -16.77958,-9.368759 -37.475,-9.368759 z"
       stroke-miterlimit="10"
       inkscape:connector-curvature="0"
       style="fill:#5e889e;stroke:#000000;stroke-width:0.14638677;stroke-miterlimit:10" />
    <text
       xml:space="preserve"
       style="font-style:normal;font-weight:normal;font-size:17.5px;line-height:125%;font-family:sans-serif;letter-spacing:0px;word-spacing:0px;fill:#000000;fill-opacity:1;stroke:none;stroke-width:1px;stroke-linecap:butt;stroke-linejoin:miter;stroke-opacity:1"
       x="224.78572"
       y="226.82985"
       id="text5460-3"
       sodipodi:linespacing="125%"><tspan
         sodipodi:role="line"
         id="tspan5462-5"
         x="224.78572"
         y="226.82985">Ontology</tspan></text>
    <path
       id="path5451-3"
       d="m 396.42858,208.76969 c -31.03855,0 -56.21253,-8.39895 -56.21253,-18.73751 0,-5.65419 0,-11.83902 0,-18.7375 0,-1.62855 0.8142,-3.17484 1.9853,-4.68438 6.26725,8.06957 28.06058,14.05313 54.22723,14.05313 26.16663,0 47.95996,-5.98356 54.22722,-14.05313 1.17109,1.50954 1.98529,3.05583 1.98529,4.68438 0,5.42538 0,11.18029 0,18.7375 0,10.33856 -25.17852,18.73751 -56.21251,18.73751 z m 0,-37.47501 c -31.03855,0 -56.21253,-8.39894 -56.21253,-18.73751 0,-5.65873 0,-11.83464 0,-18.73751 0,-0.99264 0.37504,-1.95792 0.87832,-2.91397 l 0,0 c 0.2837,-0.59931 0.65874,-1.1894 1.10698,-1.77041 6.26725,8.06503 28.06058,14.05313 54.22723,14.05313 26.16663,0 47.95996,-5.9881 54.22722,-14.05313 0.44824,0.58101 0.82343,1.1711 1.10697,1.77041 l 0,0 c 0.50328,0.95605 0.87832,1.92133 0.87832,2.91397 0,5.42539 0,11.17576 0,18.73751 0,10.33857 -25.17852,18.73751 -56.21251,18.73751 z m 0,-37.47502 c -31.03855,0 -56.21253,-8.3944 -56.21253,-18.73751 0,-2.95994 0,-6.08895 0,-9.36875 0,-2.97824 0,-6.070667 0,-9.368747 0,-10.343107 25.17398,-18.737507 56.21253,-18.737507 31.03399,0 56.21251,8.3944 56.21251,18.737507 0,2.92319 0,6.024537 0,9.368747 0,2.8683 0,5.89207 0,9.36875 0,10.34311 -25.17852,18.73751 -56.21251,18.73751 z m 0,-46.843754 c -20.69544,0 -37.47502,4.18578 -37.47502,9.368747 0,5.182817 16.77958,9.368747 37.47502,9.368747 20.69542,0 37.475,-4.18593 37.475,-9.368747 0,-5.182967 -16.77958,-9.368747 -37.475,-9.368747 z"
       stroke-miterlimit="10"
       inkscape:connector-curvature="0"
       style="fill:#5e889e;stroke:#000000;stroke-width:0.14638677;stroke-miterlimit:10" />
    <text
       xml:space="preserve"
       style="font-style:normal;font-weight:normal;font-size:17.5px;line-height:125%;font-family:sans-serif;letter-spacing:0px;word-spacing:0px;fill:#000000;fill-opacity:1;stroke:none;stroke-width:1px;stroke-linecap:butt;stroke-linejoin:miter;stroke-opacity:1"
       x="366.35715"
       y="226.82985"
       id="text5460-0"
       sodipodi:linespacing="125%"><tspan
         sodipodi:role="line"
         id="tspan5462-4"
         x="366.35715"
         y="226.82985">Points of </tspan><tspan
         sodipodi:role="line"
         x="366.35715"
         y="248.70485"
         id="tspan5497"> Interest</tspan></text>
    <text
       xml:space="preserve"
       style="font-style:normal;font-weight:normal;font-size:44.53630447px;line-height:125%;font-family:sans-serif;letter-spacing:0px;word-spacing:0px;fill:#000000;fill-opacity:1;stroke:none;stroke-width:1px;stroke-linecap:butt;stroke-linejoin:miter;stroke-opacity:1"
       x="489.25177"
       y="147.14392"
       id="text5499"
       sodipodi:linespacing="125%"><tspan
         sodipodi:role="line"
         id="tspan5501"
         x="489.25177"
         y="147.14392">...</tspan></text>
  </g>
</svg>
