<?xml version="1.0" encoding="UTF-8" standalone="no"?>
<svg
   xmlns:dc="http://purl.org/dc/elements/1.1/"
   xmlns:cc="http://creativecommons.org/ns#"
   xmlns:rdf="http://www.w3.org/1999/02/22-rdf-syntax-ns#"
   xmlns:svg="http://www.w3.org/2000/svg"
   xmlns="http://www.w3.org/2000/svg"
   xmlns:sodipodi="http://sodipodi.sourceforge.net/DTD/sodipodi-0.dtd"
   xmlns:inkscape="http://www.inkscape.org/namespaces/inkscape"
   enable-background="new 0 0 512 512"
   height="418.69824"
   id="Слой_1"
   version="1.1"
   viewBox="0 0 372.87799 418.69824"
   width="372.87799"
   xml:space="preserve"
   inkscape:version="0.91 r13725"
   sodipodi:docname="map.svg"><metadata
     id="metadata40"><rdf:RDF><cc:Work
         rdf:about=""><dc:format>image/svg+xml</dc:format><dc:type
           rdf:resource="http://purl.org/dc/dcmitype/StillImage" /><dc:title /></cc:Work></rdf:RDF></metadata><defs
     id="defs38" /><sodipodi:namedview
     pagecolor="#ffffff"
     bordercolor="#666666"
     borderopacity="1"
     objecttolerance="10"
     gridtolerance="10"
     guidetolerance="10"
     inkscape:pageopacity="0"
     inkscape:pageshadow="2"
     inkscape:window-width="1600"
     inkscape:window-height="1148"
     id="namedview36"
     showgrid="false"
     fit-margin-top="0"
     fit-margin-left="0"
     fit-margin-right="0"
     fit-margin-bottom="0"
     inkscape:zoom="0.4609375"
     inkscape:cx="193.11796"
     inkscape:cy="188"
     inkscape:window-x="0"
     inkscape:window-y="30"
     inkscape:window-maximized="1"
     inkscape:current-layer="Local_Search" /><g
     id="Local_Search"
     transform="translate(-71.56,-25.301768)"><g
       id="g4"
       transform="translate(2,-68)"><path
         d="M 442.438,325.566 C 442.438,428.535 358.965,512 256,512 153.035,512 69.563,428.535 69.563,325.566 c 0,-102.967 83.473,-186.439 186.438,-186.439 102.965,0 186.437,83.473 186.437,186.439 z"
         id="path6"
         inkscape:connector-curvature="0"
         style="fill:#3baed9" /><g
         id="g8"><path
           d="m 278.48,252.387 c 0.207,0.027 0.387,-0.148 0.594,-0.148 0.621,-0.031 2.621,1.336 3.301,1.602 0.207,0.121 0.449,0.152 0.656,0.273 0.387,0.234 0.684,0.621 1.098,0.832 0.121,0.055 0.359,0.148 0.684,0.09 0.238,-0.035 0.598,-0.09 0.953,-1.309 0.148,-0.48 -0.414,-0.719 -0.355,-1.191 0.09,-0.688 0.625,-1.195 0.738,-1.844 0.063,-0.297 -0.027,-0.477 -0.297,-0.504 -0.055,0 -0.086,0 -0.113,0 -0.18,0.027 -0.328,0.145 -0.508,0.172 -0.594,0.059 -0.535,-0.207 -1.043,0.094 -0.238,0.145 -0.473,0.328 -0.77,0.418 -0.301,0.055 -0.539,-0.125 -0.836,-0.09 -0.387,0.027 -0.652,0.445 -1.039,0.41 -0.563,0 -0.922,-0.473 -1.43,-0.559 -0.324,-0.059 -0.535,0.293 -0.828,0.266 -0.328,-0.027 -0.242,-0.152 -0.508,-0.238 -0.387,-0.121 -0.863,1.34 -0.773,1.461 0.121,0.234 0.328,0.266 0.445,0.266 0,-0.001 0,-0.001 0.031,-0.001 z"
           id="path10"
           inkscape:connector-curvature="0"
           style="fill:#b0e269" /><path
           d="m 236.73,193.207 c -0.043,0.066 -0.09,0.119 -0.117,0.18 -0.063,0.121 -0.035,0.273 0.086,0.359 0.121,0.061 0.27,0.027 0.359,-0.059 0.117,-0.121 0.27,-0.301 0.445,-0.508 0.164,-0.207 0.223,-0.266 0.477,-0.387 0.191,-0.086 0.387,-0.18 0.594,-0.234 0.074,-0.031 0.164,0 0.234,0.027 0.063,0.061 0.09,0.148 0.09,0.207 -0.012,0.48 0.137,0.98 -0.324,1.34 -0.266,0.24 -0.477,0.387 -0.641,0.535 -0.164,0.117 -0.195,0.359 -0.105,0.531 0.094,0.18 0.297,0.273 0.508,0.215 0,0 0,0 0.016,0.025 0.016,0 0.043,0.033 0.043,0.061 0.117,0.533 0.148,0.533 0.863,0.094 0.031,0 0.059,0 0.09,0 0,0 0.027,0 0.027,0.027 0.094,0.18 0.27,0.324 0.445,0.412 0.281,0.154 0.492,0.42 0.555,0.713 0,0.035 0.012,0.035 0.012,0.061 0,0 0,0.033 0.016,0.061 0.254,0.746 0.043,1.578 -0.52,2.146 -0.566,0.561 -1.398,0.74 -2.156,0.5 l -0.016,0 c -0.121,-0.027 -0.254,0 -0.328,0.119 -0.086,0.121 -0.074,0.24 0.016,0.359 0.074,0.088 0.164,0.18 0.164,0.293 -0.027,0.475 -0.625,0.301 -0.801,0.621 -0.016,0.033 -0.031,0.066 -0.031,0.094 0,0.059 0.031,0.121 0.059,0.152 0.063,0.061 0.117,0.061 0.18,0.061 0.266,-0.061 0.488,-0.307 0.77,-0.334 0.539,-0.025 0.152,1.34 -0.027,1.555 -0.207,0.207 -1.578,0.68 -2.023,0.773 -0.266,0.027 -0.457,0.053 -0.563,0.141 -0.09,0.092 -0.137,0.686 0.25,0.865 0.582,0.268 1.148,-0.24 1.711,-0.092 0.563,0.152 1.059,0.445 1.445,0.865 0.043,0.033 0.07,0.061 0.117,0.088 0.191,0.059 0.402,0.059 0.59,-0.027 0.051,-0.027 0.094,-0.027 0.137,-0.061 0.148,-0.154 0.297,-0.205 0.477,-0.205 0.121,0 0.238,0.086 0.285,0.205 0.043,0.119 0,0.24 -0.105,0.326 -0.43,0.293 -0.859,0.602 -1.457,0.535 -0.313,-0.027 -0.629,-0.027 -0.949,0 -0.969,0.086 -1.891,0.539 -2.59,1.252 -0.234,0.232 -0.492,0.475 -0.715,0.713 -0.117,0.113 -0.133,0.328 -0.031,0.441 0.121,0.152 0.297,0.18 0.449,0.094 0.117,-0.063 0.223,-0.154 0.355,-0.207 0.418,-0.268 1.176,-0.566 1.594,0.232 l 0.012,0 c 0.063,0 0.133,0 0.176,-0.025 0.57,-0.422 0.863,-1.221 1.668,-1.281 0.598,-0.059 1.043,0.508 1.637,0.387 0.672,-0.121 1.219,-0.652 1.965,-0.621 0.266,0.027 1.008,0.234 1.082,0.268 0.195,0.113 0.195,0.113 1.293,0.146 0.449,0 0.789,0.387 1.219,0.447 0.535,0.088 1.012,-0.24 1.547,-0.18 0.031,0 1.578,-0.301 1.543,-0.955 l 0,-0.025 -0.023,0 c -0.551,-0.326 -0.926,-0.928 -0.98,-1.547 -0.016,-0.061 0.012,-0.088 0.055,-0.088 0.063,-0.031 0.121,-0.031 0.152,0 0.027,0.027 0.059,0.063 0.09,0.088 0.18,0.119 0.277,0.119 0.355,0.088 0.352,-0.268 0.77,-0.535 1.156,-0.742 0.211,-0.119 0.344,-0.387 0.48,-0.859 0.027,-0.125 0.164,-0.893 -0.777,-1.398 l -0.027,-0.035 c -0.063,-0.025 -1.84,-0.953 -2.336,-0.645 -0.34,0.139 -0.34,0.139 -0.938,-0.154 -0.027,-0.088 0,-0.182 0.078,-0.24 0.695,-0.533 0.695,-0.561 0.684,-0.715 -0.031,-0.324 -0.195,-0.566 -0.402,-0.799 -0.18,-0.18 -0.195,-0.473 -0.043,-0.686 l 0.016,0 c 0.117,-0.18 -0.566,-1.668 -0.582,-1.695 -0.047,-0.025 -0.074,-0.059 -0.164,-0.059 -0.297,0.033 -0.609,0.033 -0.891,0.033 -0.043,0 -0.09,0 -0.168,0 -0.012,0 -0.012,0 -0.012,0 -0.016,-0.033 -0.031,-0.061 -0.016,-0.094 0.105,-0.359 -0.27,-0.592 -0.297,-0.953 -0.027,-0.326 0.059,-0.68 0.09,-1.006 0.027,-0.301 0,-0.654 -0.105,-0.988 -0.344,-1.186 -0.297,-2.465 0.133,-3.625 0.195,-0.5 0.434,-0.947 0.73,-1.367 0.699,-0.947 -2.406,-0.834 -3.004,-0.801 -0.047,0 -0.09,-0.033 -0.117,-0.059 -0.016,-0.061 -0.016,-0.088 0,-0.148 0.16,-0.213 0.18,-0.506 0.387,-0.719 0.297,-0.234 0.684,-0.328 1.008,-0.535 0.715,-0.445 0.121,-0.711 -0.145,-0.799 -0.625,-0.146 -1.281,-0.24 -1.934,-0.24 -0.238,0 -0.492,0.035 -0.746,0.121 -0.16,0.059 -0.355,0.266 -0.535,0.531 -0.398,0.568 -0.859,1.016 -1.398,1.428 -0.016,0.033 -0.043,0.061 -0.07,0.094 -0.137,0.088 -0.344,0.119 -0.496,0.025 -0.09,-0.025 -0.207,-0.025 -0.297,0 -0.027,0.035 -0.043,0.035 -0.055,0.063 -0.18,0.092 -0.328,0.205 -0.422,0.387 -0.113,0.18 -0.086,0.445 0.066,0.592 0.16,0.182 0.41,0.207 0.605,0.119 l 0.012,0 c 0.02,0.063 0.02,0.148 -0.012,0.207 -0.105,0.242 -0.148,0.541 -0.25,0.809 -0.016,0.025 -0.035,0.025 -0.059,0.025 -0.063,0.025 -0.109,0 -0.137,-0.025 -0.133,-0.207 -0.191,-0.207 -0.285,-0.207 0,0 -0.027,0 -0.027,0.025 -0.371,0.061 -0.625,0.928 -0.625,1.188 0.016,0.092 0.027,0.154 0.09,0.18 0.473,0.533 0.504,1.306 0.086,1.9 z"
           id="path12"
           inkscape:connector-curvature="0"
           style="fill:#b0e269" /><path
           d="m 227.672,203.473 c 0.805,-0.359 1.551,-0.832 2.395,-1.074 l 0.016,0 c 1.18,-0.324 2.188,0 2.527,-0.445 0.344,-0.445 0.938,-1.219 1.207,-1.873 0.117,-0.299 -0.211,-0.74 0.207,-0.98 0.477,-0.268 0.059,-0.746 0.18,-1.1 0.328,-0.953 0.535,-0.98 0.922,-1.039 0.375,-0.063 0.711,-0.094 0.832,-0.301 0.621,-0.895 -1.516,-3.42 -2.855,-3.094 -1.367,0.359 -2.48,2.379 -2.945,2.348 -0.594,-0.027 -0.859,-0.061 -1.246,0.273 -0.301,0.207 -0.344,0.594 -0.566,0.893 -0.266,0.318 -0.609,0.588 -0.891,0.92 -0.211,0.293 -0.297,0.533 0.016,0.801 0.234,0.213 0.371,0.326 -0.313,1.219 -0.566,0.715 -1.516,1.133 -1.902,2.02 -0.152,0.334 -0.121,0.98 -0.09,1.221 0.189,0.951 1.631,0.564 2.506,0.211 z"
           id="path14"
           inkscape:connector-curvature="0"
           style="fill:#b0e269" /><g
           id="g16"><path
             d="m 129.113,188.986 c 1.391,0.041 3.605,0.4 4.344,-0.205 0.773,-0.629 -0.207,-0.836 0.238,-1.521 0.43,-0.619 0.801,-1.307 1.098,-2.02 0.242,-0.619 0.984,-0.801 1.547,-1.127 0.953,-0.594 0.031,-0.594 -0.145,-0.895 -0.055,-0.092 -0.07,-0.258 -0.047,-0.453 -2.398,2.016 -4.746,4.089 -7.035,6.221 z"
             id="path18"
             inkscape:connector-curvature="0"
             style="fill:#b0e269" /><path
             d="m 119.359,437.105 c 0.152,-0.297 1.371,-0.445 2.828,0.594 1.172,0.809 2.852,-1.102 2.691,-1.785 -0.48,-2.141 -0.492,-2.5 -0.223,-4.461 0.457,-3.324 -0.445,-11.629 -0.848,-12.727 -0.227,-0.629 -0.371,-1.246 -0.449,-1.867 -0.074,-0.66 -0.102,-1.277 -0.074,-1.879 0.566,7.379 0.566,-7.848 3.957,-10.582 0.359,-0.598 0.715,-1.191 1.07,-1.785 1.785,-3.031 3.449,-6.039 3.316,-7.055 -0.582,-4.547 -15.047,-21.141 -19.152,-24.199 -3.223,-2.441 -6.168,-6.488 -7.688,-7.852 -0.563,-0.5 -0.996,-1.188 -1.426,-1.902 -0.566,-0.918 -1.574,-1.484 -2.645,-1.484 -1.086,0 -5.77,-6.574 -4.105,-9.695 0.238,-4.254 -8.086,-17.813 -15.465,-26.113 -0.234,-0.293 -6.242,-17.926 -6.152,-18.047 0.652,-0.773 0.238,-4.551 0.18,-5.352 -0.09,-1.547 -1.52,-2.793 -1.789,-2.621 -0.328,0.246 -1.355,-0.125 -1.762,-0.527 -1.352,9.074 -2.063,18.355 -2.063,27.801 0,45.895 16.598,87.906 44.098,120.395 1.244,-2.349 4.217,-6.396 5.701,-8.857 z"
             id="path20"
             inkscape:connector-curvature="0"
             style="fill:#b0e269" /><path
             d="m 145.766,180.746 c 0.629,0.152 1.223,0.334 1.875,0.094 3.359,-1.246 4.34,-0.18 7.137,-1.426 l 0.031,0 c 3.656,-1.633 3.805,-9.721 8.785,-14.18 0.477,-0.453 1.012,-0.84 1.563,-1.16 0.922,-0.602 1.516,-1.488 2.141,-2.328 0.098,-0.133 0.219,-0.246 0.32,-0.367 -8.824,4.754 -17.219,10.215 -25.113,16.281 0.938,0.348 1.734,1.059 2.137,2.053 0.186,0.506 0.62,0.892 1.124,1.033 z"
             id="path22"
             inkscape:connector-curvature="0"
             style="fill:#b0e269" /><path
             d="m 138.422,182.533 c 0.582,-0.113 0.789,-0.326 0.953,-0.68 0.117,-0.24 0.328,-0.414 0.594,-0.506 0.34,-0.809 0.27,-1.334 -0.031,-1.68 -1.051,0.832 -2.094,1.68 -3.125,2.539 0.468,0.327 1.05,0.462 1.609,0.327 z"
             id="path24"
             inkscape:connector-curvature="0"
             style="fill:#b0e269" /><path
             d="m 204.691,147.533 -0.02,0 c -2.5,0.127 -6.91,2.768 -7.73,3.154 -1.664,0.84 -3.164,2.227 -4.148,3.299 -0.488,0.566 0.375,0.748 1.059,1.014 0,0 -5.367,3.746 -6.082,4.785 -0.133,0.207 -0.133,0.475 -0.016,0.688 l 0.031,0 c -1.281,1.273 -0.672,3.859 -0.535,4.133 0.207,0.414 -0.266,1.248 -0.18,1.248 0.238,0.061 -0.742,1.041 -0.891,1.246 -0.234,0.361 0.074,1.279 0.594,1.254 0.535,-0.033 0.863,-0.354 1.371,-0.92 0,0 1.367,-0.781 2.273,-1.52 0.891,-0.742 2.688,-0.953 3.371,-2.201 0.359,-0.686 2.055,-1.193 2.129,-0.953 0.07,0.326 4.234,-1.541 4.09,-2.26 -0.121,-0.68 0.27,-0.74 0.711,-0.566 0.297,0.119 0.551,0.027 0.746,-0.113 1.25,-1.074 3.148,-2.32 4.727,-1.934 0.387,0.121 0.801,0.059 1.133,-0.152 1.586,-0.895 -0.18,0.273 0.055,0.625 0.063,0.086 0.18,0.148 0.27,0.086 0.68,-0.266 1.395,-0.387 2.113,-0.412 1.008,0 3.965,-0.953 4.027,-0.98 0.016,0 0.016,0 0.016,0 3.18,-1.639 4.488,-2.674 5.145,-2.232 0.207,0.146 0.328,0.387 0.297,0.625 0,0 0.016,0 0.031,0.027 0.504,0.359 1.066,0 1.676,-0.18 0,0 0.492,0.539 2.41,0.514 -0.461,1.154 19.488,-3.16 32.133,-13.654 1.242,-1.025 2.551,-2.012 3.883,-2.98 -1.125,-0.02 -2.25,-0.045 -3.379,-0.045 -15.637,0 -30.816,1.939 -45.328,5.561 -1.802,1.136 -4.626,2.771 -5.982,2.843 z"
             id="path26"
             inkscape:connector-curvature="0"
             style="fill:#b0e269" /><path
             d="m 327.434,153.32 c -0.844,-0.148 -1.715,0.078 -2.355,0.641 -0.684,0.592 -2.828,1.512 -3.094,1.752 -0.297,-0.086 -0.625,-0.086 -0.949,0.027 -1.25,0.479 -1.965,2.859 -1.699,3.721 0.09,0.359 -0.98,1.512 -1.426,1.365 -0.266,-0.086 -0.984,0.533 -0.625,0.801 0.414,0.334 -1.066,1.072 -1.34,0.986 -1.547,-0.48 -2.434,1.426 -2.824,1.873 -0.238,0.295 -3.746,3.627 -1.785,3.627 0.539,0 0.094,1.395 -1.305,0.895 -1.223,-0.449 -2.383,-1.074 -3.359,-1.875 -0.66,-0.506 3.387,-4.193 3.504,-5.352 0.152,-1.16 -7.73,-2.707 -10.348,-3.928 -2.258,-1.041 -4.133,-0.861 -4.699,-1.607 -0.234,-0.326 -0.355,-0.738 -0.266,-1.16 -1.219,-0.232 -1.988,-0.387 -2.531,-0.473 -0.504,-0.121 -2.016,-0.146 -4.098,0.508 -4.492,1.426 -8.773,5.619 -8.773,5.619 0,0 -0.863,1.453 -1.695,2.406 -0.742,0.861 -1.309,1.906 -2.172,2.707 -0.328,0.293 -0.563,0.713 -0.652,1.16 -0.445,0.119 -0.805,0.473 -0.926,0.92 -0.531,1.934 -2.078,4.848 -10.301,8.301 l -0.016,0 c -2.406,1.039 -3.926,3.445 -3.793,6.092 0.051,0.893 0.27,1.693 0.645,2.467 0.324,9.193 0.324,9.193 12.813,3.395 0.598,0.832 1.25,1.906 1.727,2.939 0.477,1.041 0.832,2.025 0.863,2.705 0.684,0.715 6.098,0.361 7.195,-1.719 0.922,-1.787 -0.477,-3.66 0.203,-5.441 0,0 0.035,0 0.035,-0.031 0.863,-2.113 1.07,-4.4 0.625,-6.633 -0.184,-1.041 3.063,-7.375 3.625,-8.234 0.953,-1.488 5.059,-4.58 5.328,-3.334 0.113,0.42 0,0.893 -0.27,1.221 -0.684,0.867 -0.98,2.053 -1.574,2.973 -1.223,1.848 -1.492,4.168 -0.719,6.246 0.684,1.814 4.43,3.48 4.848,3.207 0.031,0 0.031,0 0.031,-0.027 0,0 6.66,-1.691 8.77,-1.246 0.211,0.055 0.359,0.207 0.418,0.414 0.059,0.18 -0.031,0.387 -0.18,0.533 -2.527,2.26 -3.031,0.748 -5.68,1.254 -0.918,0.146 -1.637,0.885 -1.754,1.813 -0.09,0.834 0.297,1.635 1.012,2.08 0.117,0.086 0.207,0.24 0.18,0.387 0,0 -0.566,1.514 -1.309,1.848 -0.566,0.232 -1.191,0.232 -1.727,0 -0.414,-0.215 -0.891,-0.154 -1.277,0.086 -0.77,0.508 -0.836,3.719 -0.477,4.76 0.594,1.693 -2.555,4.754 -3.805,4.514 -2.59,-0.473 -5.266,-0.055 -7.582,1.16 -1.102,0.6 -2.438,0.387 -3.363,-0.441 -0.625,-0.566 -0.027,-0.805 -0.801,-1.279 -0.148,-0.119 -4.195,1.574 -4.375,1.635 -0.176,0.059 -0.832,-0.328 -0.859,-0.535 0,-0.025 0,-0.025 0,-0.025 -0.09,-0.779 -2.438,-0.959 -2.797,-2.354 -0.164,-0.605 0.195,-1.533 1.25,-2.807 -2.512,0.205 -7.656,0.365 -2.809,0.846 -0.195,0.947 -0.223,1.994 -0.074,3 0.25,3.422 -3.645,3.008 -3.984,3.387 0,0.035 0,0.035 0,0.035 -0.508,0 -1.223,0 -2.41,0.092 -0.504,0.053 -0.98,0.32 -1.277,0.707 -0.031,0.066 -0.043,0.119 -0.031,0.18 0.031,0.273 -0.145,0.541 -0.434,0.594 -0.918,0.24 -1.766,0.686 -2.449,1.314 -1.637,1.459 -2.453,2.078 -4.168,3.031 -1.188,0.654 -2.242,1.516 -3.148,2.555 -0.355,0.42 -1.16,0.893 -3.035,1.965 -0.176,0.088 -0.297,0.268 -0.355,0.475 -0.086,0.387 -0.414,0.713 -0.828,0.773 -1.699,0.232 -2.176,-0.18 -3.125,-0.807 -0.504,-0.32 -0.895,0.359 -0.762,0.781 0,0.025 0,0.025 0,0.025 0.137,0.412 0.047,0.893 -0.219,1.252 -0.238,0.32 -0.656,0.563 -1.102,0.594 -1.16,0.061 -2.305,-0.213 -3.332,-0.713 -0.086,-0.066 -0.207,-0.066 -0.297,-0.033 -1.695,0.533 -2.676,2.561 -2.258,2.586 2.91,0.328 2.855,0.834 4.012,1.574 0.332,0.207 0.566,0.566 0.715,0.926 0.18,0.387 0.281,0.801 0.418,1.221 5.676,4.221 -9.551,4.221 -12.191,9.959 -0.34,-0.18 -0.684,-0.324 -1.012,-0.473 -11.57,-5.238 -11.539,-4.672 -10.691,16.32 -0.074,0.328 1.023,4.578 1.441,4.852 0.313,0.211 1.34,-0.273 1.949,-0.539 0.457,-0.18 0.727,-0.293 1.727,0.859 0.934,1.047 0.207,3.508 2.168,3.543 0.52,0 0.832,-0.508 0.965,-0.801 0.152,-0.359 0.152,-0.359 3.926,-1.195 1.668,-0.352 3.285,0.715 4.965,0.18 1.281,-0.383 1.34,-2.078 2.648,-2.438 0.895,-0.266 1.816,0.211 2.664,-0.199 0.457,-0.273 0.043,-1.668 0.547,-2.121 0.773,-0.68 1.09,-1.754 0.773,-2.734 -0.148,-0.445 -0.117,-0.594 -0.031,-0.953 0.078,-0.387 7.691,-5.672 10.293,-7.191 2.316,-1.309 0.715,-4.848 3.422,-5.922 2.508,-1.004 13.109,-2.492 13.82,-2.551 0.746,-0.035 1.43,0.145 1.996,0.41 0.859,0.422 1.605,1.047 2.109,1.875 2.469,3.953 10.977,9.992 11.688,10.465 0.711,0.508 1.457,1.039 4.547,4.727 0.211,0.57 0.211,1.074 -0.27,1.254 -0.648,0.293 -0.648,0.48 -0.648,0.715 0.031,0.531 -0.418,1.008 -0.09,1.539 0.09,0.152 0.414,0.625 1.16,0.273 0.863,-0.445 0.531,-0.594 0.863,-1.281 0.859,-1.691 0.828,-1.777 0.801,-1.777 0.297,-0.207 0.832,-0.035 -4.254,-9.875 -0.711,-0.035 -1.398,-0.207 -2.02,-0.504 -0.625,-0.336 -1.16,-0.809 -1.578,-1.395 l -4.906,-7.113 c -0.176,-0.301 -0.383,-0.621 -0.563,-0.953 -0.328,-0.568 -0.031,-1.273 0.563,-1.516 0.031,0 0.059,-0.025 0.121,-0.025 0.918,-0.301 1.961,0.086 2.5,0.92 0.262,0.414 0.531,0.859 1.039,0.824 0.594,-0.023 1.16,0.129 1.664,0.484 0,0 2.078,1.543 4.191,3.09 1.043,0.773 2.109,1.516 11.27,12.047 0.211,0.176 0.508,0.379 0.684,0.563 0.18,0.207 0.242,0.266 0.629,0.918 0.145,0.266 1.215,1.219 1.215,1.219 0.059,0.063 0.18,0.121 0.328,0.121 0.027,0 0.027,0 0.027,0 0.332,0 0.598,-0.121 0.895,-0.094 0.891,0.063 2.262,1.195 3.332,0.688 0.09,-0.059 1.188,-0.688 1.188,-0.688 l 0,-0.027 c 2.559,-1.156 -0.594,-2.344 -0.684,-3.504 -0.027,-0.422 0.121,-0.742 0.387,-0.926 0.27,-0.176 0.594,-0.207 0.953,-0.055 0.18,0.086 0.418,0.055 0.566,-0.063 0.203,-0.145 0.355,-0.359 0.414,-0.625 0.27,-1.332 1.633,-1.719 3.004,-1.719 1.129,0 2.23,0.293 3.211,0.828 0.414,0.238 0.863,0.324 1.336,0.324 0.445,-0.027 0.863,-0.121 1.281,-0.266 0.387,-0.148 0.773,-0.355 0.832,-0.293 -0.18,0.145 -0.418,0.293 -0.715,0.473 -0.297,0.18 -0.652,0.359 -1.07,0.504 l -0.031,0 c -0.711,0.297 -1.102,1.043 -0.922,1.762 0.328,1.453 3.391,2.906 1.402,4.781 -0.031,0.027 -0.063,0.059 -0.063,0.059 1.102,0.48 2.051,1.281 2.645,2.289 0.508,0.867 1.313,1.578 2.234,2.109 0.473,0.301 0.98,0.535 1.484,0.715 -0.324,2.793 14.898,2.793 21.086,2.441 0.117,0.531 0.266,1.102 0.441,1.664 1.281,4.496 2.887,8.98 -1.844,12.906 -0.563,0.441 -15.164,0.949 -21.613,1.367 -3.723,0.27 -4.254,-1.07 -5.414,-1.098 0,0 0,0 -0.031,0 0,0 0,0 -0.027,0 -1.254,0.027 -1.488,0.027 -3.363,-0.387 -1.16,-0.266 -4.25,-4.727 -8.504,-1.309 -1.219,1.008 -1.934,2.289 -1.871,3.035 0.508,10.586 -16.949,-1.434 -19.18,-2.086 -2.469,-0.715 -10.41,-3.836 -11.125,-3.867 -0.25,-0.027 -0.383,-1.336 0.418,-2.141 2.113,-2.113 2.766,-2.973 2.082,-4.102 -1.754,-2.945 -2.145,-4.699 -2.156,-4.73 -0.547,-0.684 -1.414,-1.066 -2.305,-1.008 -26.316,1.66 -31.996,2.434 -37.184,4.906 -0.461,0.207 -1.398,0.652 -2.871,0.027 -1.129,-0.5 -2.379,-0.566 -3.555,-0.148 -1.707,-1.133 -3.938,-1.004 -5.512,0.266 l -8.582,6.988 c -0.875,0.715 -1.617,1.547 -2.211,2.5 -1.551,2.441 -1.457,4.281 -1.414,5.148 0.133,2.758 -7.719,7.82 -11.852,7.34 0,0 -0.016,0 -0.027,0 l 0,-0.027 c -1.906,0.773 -3.543,1.453 -13.086,14.754 -5.23,7.281 -5.23,7.281 -4.18,9.332 0.566,1.066 1.723,3.301 0.852,9.367 -0.047,0.387 -4.043,13.914 -4.043,13.914 -1.031,3.418 1.813,9.965 1.813,9.965 0,0 1.082,2.047 1.203,2.313 0.785,1.789 1.887,11.75 4.828,16.301 0.465,0.715 15.766,13.77 18.008,14.207 6.629,1.254 20.922,4.047 21.266,4.082 7.547,0.504 13.75,-5.77 21.066,-6.281 1.691,-0.113 5.203,0.988 6.094,6.098 0.656,3.844 6.543,2.621 9.309,1.816 1.262,-0.387 2.602,-0.293 3.82,0.18 0.016,0 0.016,0.027 0.016,0.027 l 0,0.031 c 0.086,0.836 2.676,1.547 2.926,1.934 1.504,2.293 0.449,14.395 -2.156,16.473 -0.277,0.207 -0.504,0.508 -0.637,0.836 2.809,5.797 8.969,8.711 8.969,8.711 0.891,0.953 6.184,10.082 6.75,14.121 0.859,6.129 0.859,4.965 1.008,5.234 2.703,4.406 0.359,6.512 -1.309,7.348 -0.504,0.266 -5.414,11.684 -5.383,13.586 0,1.75 2.887,3.426 3.898,4.852 l 6.512,9.102 c 0.117,0.145 0.234,0.293 0.355,0.438 2.262,2.859 -1.219,6.875 0.801,9.727 0.656,0.922 2.262,4.668 3.125,5.234 1.309,0.895 6.836,8.887 5.199,10.262 -0.18,0.145 -0.18,0.531 -0.086,0.738 0.504,1.426 7.199,3.688 9.664,2.648 3.691,-1.574 11.387,-2.797 14.539,-2.766 4.34,0.031 25.223,-14.957 23.582,-20.129 -0.027,-0.059 -0.027,-0.152 -0.027,-0.215 l 0.027,0 c 2.438,-2.879 9.516,-6.453 9.34,-6.805 0,0 0,0 -0.031,0 0.926,-2.055 3.063,-12.16 6.004,-14.336 2.5,-1.836 6.156,-4.492 11.512,-8.352 3.328,-2.438 4.996,-4.133 4.727,-14.574 -0.27,-9.574 -1.965,-17.039 -2.527,-18.645 -0.805,-2.289 -0.594,-2.703 0.324,-4.367 2.68,-4.969 17.996,-27.094 20.727,-29.621 0.121,-0.121 0.242,-0.238 0.328,-0.352 4.996,-5.828 7.852,-13.707 9.668,-21.113 0.383,-1.582 0.98,-3.063 1.457,-4.613 0.113,-0.414 0.297,-1.961 0.441,-3.773 0.063,-0.594 0.121,-1.223 -7.699,-4.969 -0.332,0.121 -0.684,0.242 -1.012,0.363 -5.207,1.805 -11.27,3.652 -11.926,3.031 -0.98,-0.895 -1.602,-2.027 -1.871,-3.359 -0.27,-1.375 -0.98,-2.648 -2.051,-3.66 -5.652,-5.262 -16.715,-8.68 -19.332,-22.988 -0.414,-2.141 -16.141,-24.887 -19.355,-29.465 -0.355,-0.508 -0.477,-1.16 -0.328,-1.762 0,-0.023 0,-0.023 0,-0.023 0.625,1.543 3.063,4.336 4.551,5.883 0.414,0.449 1.012,0.629 1.516,0.27 0.566,-0.441 0.18,-1.102 0.324,-3.148 0.031,-0.598 0.895,-0.652 0.984,-0.059 0.207,1.273 0.832,2.465 1.785,3.387 2.078,1.992 4.637,5.766 6.301,8.387 1.043,1.605 2.441,2.918 4.105,3.867 2.379,1.34 3.09,3.566 4.82,8.766 1.992,6.219 9.273,7.707 11.953,13.301 2.258,4.727 7.727,13.285 8.32,13.172 4.406,-1.039 8.566,-4.434 9.816,-5.414 0.445,-0.324 0.863,-0.652 1.277,-0.984 0.387,-0.32 0.773,-0.621 1.133,-0.922 17.633,-5.352 17.633,-5.352 17.156,-13.285 0,-0.328 0.027,-0.66 0.027,-1.016 0,-2.465 -0.117,-5.68 -0.266,-9.785 0.031,-0.328 0.09,-0.652 0.148,-0.98 0.746,-5.086 1.043,-11.531 1.785,-12.906 -0.207,-0.387 -0.508,-0.742 -0.863,-1.066 -0.387,-0.301 -0.832,-0.602 -1.367,-0.867 -1.754,-0.828 -3.836,0.48 -5.469,-0.918 0,0 0,-0.027 -0.035,-0.027 -0.891,-0.781 -2.078,-1.074 -3.211,-0.836 -1.156,0.234 -2.137,0.98 -2.645,2.047 0,0 -0.031,0 -0.031,0.035 -0.441,0.918 -1.305,1.547 -2.316,1.691 -1.637,0.242 -1.461,0.508 -2.707,1.461 -2.199,-1.125 -3.688,-1.426 -9.395,-9.246 -0.242,-0.352 -0.477,-0.715 -0.746,-1.074 -2.887,-4.254 12.34,-4.254 10.523,-0.746 0.422,0.094 0.836,0.18 1.25,0.266 0.418,0.066 0.805,0.094 1.191,0.066 0.742,-0.031 1.336,-0.211 1.602,-0.652 12.641,-3.094 13,-3.188 29.77,-5.859 0.504,-0.063 0.98,-0.148 1.488,-0.207 0.664,0.152 1.281,0.301 1.875,0.441 -16.908,-51.808 -55.881,-93.62 -105.822,-114.355 z"
             id="path28"
             inkscape:connector-curvature="0"
             style="fill:#b0e269" /></g></g><path
         d="m 332.066,155.307 c 45.391,34 74.762,88.221 74.762,149.299 0,102.969 -83.469,186.434 -186.434,186.434 -27.094,0 -52.836,-5.777 -76.066,-16.172 C 175.453,498.188 214.113,512 256,512 c 102.965,0 186.438,-83.465 186.438,-186.434 0,-75.875 -45.329,-141.152 -110.372,-170.259 z"
         id="path30"
         inkscape:connector-curvature="0"
         style="opacity:0.1" /></g><path
       d="M 299.89063,53.36052 C 293.15757,45.20338 285.30534,38.80266 276.55961,34.331 267.4602,29.670291 257.80219,27.301768 247.8513,27.301768 c -9.93796,0 -19.58563,2.368523 -28.67985,7.029952 -8.75092,4.47165 -16.60056,10.87237 -23.34591,19.02951 -13.78422,16.68881 -21.37654,38.84734 -21.37654,62.39417 0,22.46245 9.17763,50.20057 27.28592,82.42818 14.24908,25.34533 30.30655,46.81186 38.60811,57.35678 1.88661,2.58326 4.59625,4.01864 7.51344,4.01864 l 0.0149,0 c 2.90685,0 5.62425,-1.43538 7.45008,-3.93803 8.35717,-10.62054 24.40687,-32.0728 38.65596,-57.43811 18.11346,-32.22761 27.30143,-59.96002 27.30143,-82.42817 6.5e-4,-23.54683 -7.5936,-45.70536 -21.38818,-62.39417 z"
       id="path32"
       inkscape:connector-curvature="0"
       style="fill:#ec5564" /><path
       d="m 248.9523,70.813239 c -22.01142,0 -39.92719,17.908979 -39.92719,39.930211 0,22.01368 17.91652,39.93322 39.92719,39.93322 22.00539,0 39.92191,-17.91954 39.92191,-39.93322 -7.5e-4,-22.021232 -17.91652,-39.930211 -39.92191,-39.930211 z"
       id="path34"
       inkscape:connector-curvature="0"
       style="fill:#d94452" /></g></svg>