<?xml version="1.0" encoding="windows-1252"?>
<!-- Generator: Adobe Illustrator 16.0.0, SVG Export Plug-In . SVG Version: 6.00 Build 0)  -->
<!DOCTYPE svg PUBLIC "-//W3C//DTD SVG 1.1//EN" "http://www.w3.org/Graphics/SVG/1.1/DTD/svg11.dtd">
<svg version="1.1" id="Capa_1" xmlns="http://www.w3.org/2000/svg" xmlns:xlink="http://www.w3.org/1999/xlink" x="0px" y="0px" width="476px" height="476px" viewBox="0 0 476 476" style="enable-background:new 0 0 476 476;" xml:space="preserve">
<g>
	<path d="M34,299.2c0-33.803,27.397-61.2,61.2-61.2c33.803,0,61.2,27.397,61.2,61.2s-27.397,61.2-61.2,61.2   C61.397,360.4,34,333.003,34,299.2z M476,68v108.8c0,37.557-30.443,68-68,68H298.193c-18.264,26.677-56.793,34-56.793,34l8.5-34   h-1.701c-37.556,0-68-30.443-68-68V68c0-37.557,30.444-68,68-68H408C445.557,0,476,30.443,476,68z M336.328,173.128h-25.086V197.2   h25.086V173.128z M371.824,87.863c0-24.072-21.414-38.352-44.473-38.352c-24.27,0-38.352,14.681-38.352,14.681l14.287,17.748   c0,0,10.199-8.568,21.82-8.568c11.221,0,19.789,7.344,19.789,16.925c0,21.012-33.654,25.704-33.654,55.284v9.792h25.086v-7.956   C336.328,125.392,371.824,121.516,371.824,87.863z M122.4,380.8H68c-37.557,0-68,30.443-68,68V476h190.4v-27.2   C190.4,411.243,159.957,380.8,122.4,380.8z"/>
</g>
<g>
</g>
<g>
</g>
<g>
</g>
<g>
</g>
<g>
</g>
<g>
</g>
<g>
</g>
<g>
</g>
<g>
</g>
<g>
</g>
<g>
</g>
<g>
</g>
<g>
</g>
<g>
</g>
<g>
</g>
</svg>