<?xml version="1.0" encoding="UTF-8"?>
<!-- Generator: Adobe Illustrator 18.1.1, SVG Export Plug-In . SVG Version: 6.00 Build 0)  -->
<!DOCTYPE svg PUBLIC "-//W3C//DTD SVG 1.1//EN" "http://www.w3.org/Graphics/SVG/1.1/DTD/svg11.dtd">
<svg version="1.1" id="Layer_1" xmlns="http://www.w3.org/2000/svg" xmlns:xlink="http://www.w3.org/1999/xlink" x="0px" y="0px" width="229.456px" height="157.751px" viewBox="0 0 229.456 157.751" enable-background="new 0 0 229.456 157.751" xml:space="preserve">
<g>
	<path fill="#509DD4" d="M157.029,115.593c-2.93,0-5.317,2.584-5.317,5.772c0,3.188,2.386,5.778,5.317,5.778   c2.94,0,5.317-2.59,5.317-5.778C162.346,118.177,159.969,115.593,157.029,115.593z"/>
	<path fill="#509DD4" d="M199.223,111.578c-2.529,0-4.582,2.224-4.582,4.973c0,2.752,2.052,4.973,4.582,4.973   c2.533,0,4.582-2.221,4.582-4.973C203.804,113.802,201.755,111.578,199.223,111.578z"/>
	<path fill="#509DD4" d="M219.21,22.259l-27.651-1.058c-1.47-5.323-5.969-9.232-11.338-9.232l-35.254-1.354   c-2.202-4.964-6.839-8.424-12.24-8.424L75.532,0c-2.218,0-4.283,0.634-6.135,1.661c-0.783-0.32-1.627-0.453-2.475-0.327   L4.343,10.904C1.855,11.285,0,13.599,0,16.332v118.107c0,2.542,1.616,4.757,3.895,5.336l62.579,15.96   c0.382,0.099,0.77,0.146,1.152,0.146c0.369,0,0.722-0.111,1.079-0.197c2.016,1.28,4.33,2.068,6.828,2.068l57.198-5.158   c4.51,0,8.483-2.42,10.964-6.099l36.531-3.294c3.871,0,7.279-2.049,9.45-5.168l29.539-2.662c5.644,0,10.242-4.995,10.242-11.136   V33.392C229.456,27.255,224.858,22.259,219.21,22.259z M136.259,137.795c0,2.113-1.578,3.834-3.529,3.834l-57.198,5.164   c-1.21,0-2.227-0.711-2.864-1.725V12.687c0.636-1.012,1.653-1.719,2.864-1.719l57.195,2.192c1.951,0,3.532,1.718,3.532,3.837   V137.795z M183.301,130.283c0,1.849-1.378,3.35-3.077,3.35l-33.873,3.055V64.901l26.291-0.522c1.944,0,3.522-1.711,3.522-3.824   c0-2.113-1.578-3.831-3.522-3.831l-26.291,0.522v-6.324l26.291,0.651c1.944,0,3.522-1.712,3.522-3.828   c0-2.113-1.578-3.825-3.522-3.825l-26.291-0.651v-5.958l26.291,1.449c1.944,0,3.522-1.715,3.522-3.825   c0-2.113-1.578-3.831-3.522-3.831l-26.291-1.444v-9.425l33.87,1.298c1.699,0,3.08,1.502,3.08,3.35V130.283z M221.864,124.235   c0,1.597-1.193,2.889-2.65,2.889l-27.102,2.445V67.846l20.564-0.405c1.677,0,3.036-1.483,3.036-3.299   c0-1.823-1.359-3.299-3.036-3.299l-20.564,0.405V55.89l20.564,0.51c1.677,0,3.036-1.476,3.036-3.299   c0-1.823-1.359-3.299-3.036-3.299l-20.564-0.505V44.22l20.564,1.133c1.677,0,3.036-1.476,3.036-3.296s-1.359-3.296-3.036-3.296   l-20.564-1.137V29.47l27.099,1.037c1.46,0,2.653,1.298,2.653,2.886V124.235z"/>
	<path fill="#509DD4" d="M124.041,24.124l-39.819-2.189c-2.224,0-4.032,1.963-4.032,4.384c0,2.424,1.807,4.388,4.032,4.388   l39.819,2.192c2.227,0,4.038-1.963,4.038-4.387C128.079,26.09,126.268,24.124,124.041,24.124z"/>
	<path fill="#509DD4" d="M124.041,38.811l-39.819-0.98c-2.224,0-4.032,1.966-4.032,4.384c0,2.424,1.807,4.388,4.032,4.388   l39.819,0.98c2.227,0,4.038-1.963,4.038-4.384C128.079,40.777,126.268,38.811,124.041,38.811z"/>
	<path fill="#509DD4" d="M124.041,53.491l-39.819,0.789c-2.224,0-4.032,1.963-4.032,4.382c0,2.424,1.807,4.387,4.032,4.387   l39.819-0.789c2.227,0,4.038-1.957,4.038-4.382C128.079,55.455,126.268,53.491,124.041,53.491z"/>
	<path fill="#509DD4" d="M106.15,120.958c-3.363,0-6.09,2.959-6.09,6.615c0,3.659,2.727,6.618,6.09,6.618   c3.366,0,6.093-2.959,6.093-6.618C112.243,123.917,109.516,120.958,106.15,120.958z"/>
</g>
</svg>