<svg version="1.1" id="Layer_1" xmlns="http://www.w3.org/2000/svg" xmlns:xlink="http://www.w3.org/1999/xlink" x="0px" y="0px" width="268.705px" height="207.59px" viewBox="0 0 268.705 207.59" enable-background="new 0 0 268.705 207.59" xml:space="preserve">
<g>
	<g>
		<path fill="#2E98CB" d="M260.376,179.476h-72.374V85.418h72.374V179.476z M217.421,193.533c0-3.739,3.027-6.771,6.766-6.771    c3.742,0,6.771,3.031,6.771,6.771c0,3.742-3.029,6.77-6.771,6.77C220.448,200.302,217.421,197.275,217.421,193.533     M268.705,196.349V81.375c0-6.211-5.03-11.237-11.245-11.237h-66.538c-6.215,0-11.252,5.026-11.252,11.237v114.974    c0,6.203,5.037,11.241,11.252,11.241h66.538C263.675,207.59,268.705,202.552,268.705,196.349"/>
	</g>
	<g>
		<g>
			<g>
				<path fill="#2E98CB" d="M7.13,154.284H4.662c0,0,1.156,1.667,1.997,2.581c1.241,1.344,1.348,2.666,5.518,2.666h170.208      l0.332-5.247H7.13z M163.948,97.637c0,2.307-1.887,4.188-4.191,4.188H39.089c-2.305,0-4.189-1.881-4.189-4.188V33.759      c0-2.306,1.885-4.191,4.189-4.191h120.668c2.305,0,4.191,1.886,4.191,4.191V97.637z M170.392,107.444V28.082      c0-2.304-1.885-4.191-4.189-4.191H32.646c-2.305,0-4.191,1.887-4.191,4.191v79.362c0,2.306,1.887,4.192,4.191,4.192h133.557      C168.507,111.636,170.392,109.75,170.392,107.444 M175.347,139.348h-15.372c-0.951,0-1.88-0.36-2.063-0.798l-1.316-3.104      c-0.176-0.421,0.426-0.758,1.349-0.758h14.854c0.927,0,1.86,0.337,2.092,0.758l1.737,3.104      C176.872,138.988,176.3,139.348,175.347,139.348 M171.685,133.458h-26.536c-0.915,0-1.763-0.329-1.899-0.732l-0.946-2.849      c-0.126-0.384,0.487-0.692,1.373-0.692h25.683c0.887,0,1.775,0.309,1.988,0.692l1.588,2.849      C173.158,133.128,172.598,133.458,171.685,133.458 M169.163,128.05h-14.119c-0.878,0-1.716-0.304-1.873-0.677l-1.115-2.626      c-0.15-0.353,0.418-0.64,1.266-0.64h13.688c0.849,0,1.697,0.287,1.895,0.64l1.472,2.626      C170.58,127.747,170.041,128.05,169.163,128.05 M166.494,122.922h-17.606c-0.764,0-1.494-0.277-1.629-0.621l-0.852-2.158      c-0.126-0.33,0.373-0.592,1.117-0.592h17.123c0.742,0,1.495,0.262,1.68,0.592l1.209,2.158      C167.726,122.645,167.261,122.922,166.494,122.922 M144.284,122.301c0.129,0.344-0.393,0.621-1.159,0.621h-17.606      c-0.764,0-1.441-0.277-1.509-0.621l-0.437-2.158c-0.067-0.33,0.482-0.592,1.227-0.592h17.122c0.742,0,1.447,0.262,1.569,0.592      L144.284,122.301z M121.035,122.301c0.061,0.344-0.509,0.621-1.276,0.621h-17.605c-0.766,0-1.39-0.277-1.394-0.621l-0.024-2.158      c-0.006-0.33,0.596-0.592,1.341-0.592h17.117c0.747,0,1.398,0.262,1.456,0.592L121.035,122.301z M97.812,120.143l-0.029,2.158      c-0.003,0.344-0.629,0.621-1.394,0.621H78.782c-0.766,0-1.334-0.277-1.274-0.621l0.386-2.158c0.06-0.33,0.709-0.592,1.453-0.592      h17.121C97.212,119.551,97.815,119.813,97.812,120.143 M74.974,120.143l-0.439,2.158c-0.068,0.344-0.746,0.621-1.514,0.621      H55.418c-0.767,0-1.286-0.277-1.159-0.621l0.797-2.158c0.124-0.33,0.822-0.592,1.568-0.592h17.119      C74.489,119.551,75.038,119.813,74.974,120.143 M52.136,120.143l-0.85,2.158c-0.136,0.344-0.867,0.621-1.633,0.621H32.049      c-0.767,0-1.229-0.277-1.038-0.621l1.206-2.158c0.185-0.33,0.936-0.592,1.683-0.592h17.117      C51.765,119.551,52.263,119.813,52.136,120.143 M31.696,124.108h13.687c0.851,0,1.419,0.287,1.269,0.64l-1.109,2.626      c-0.159,0.373-0.995,0.677-1.871,0.677H29.546c-0.875,0-1.418-0.304-1.209-0.677l1.467-2.626      C30.001,124.395,30.849,124.108,31.696,124.108 M26.94,129.876c0.214-0.384,1.104-0.692,1.987-0.692h23.485      c0.886,0,1.494,0.309,1.357,0.692l-1,2.849c-0.141,0.403-0.998,0.732-1.912,0.732H26.592c-0.911,0-1.468-0.329-1.243-0.732      L26.94,129.876z M25.919,134.689h14.857c0.924,0,1.527,0.337,1.35,0.758l-1.311,3.104c-0.188,0.438-1.111,0.798-2.066,0.798      H23.378c-0.951,0-1.525-0.36-1.278-0.798l1.732-3.104C24.063,135.026,25.001,134.689,25.919,134.689 M44.733,138.55l1.224-3.104      c0.165-0.421,1.046-0.758,1.97-0.758h14.853c0.923,0,1.581,0.337,1.476,0.758l-0.805,3.104      c-0.115,0.438-0.981,0.798-1.934,0.798h-15.37C45.192,139.348,44.56,138.988,44.733,138.55 M67.37,138.55l0.714-3.104      c0.099-0.421,0.92-0.758,1.843-0.758h14.857c0.924,0,1.639,0.337,1.6,0.758l-0.297,3.104c-0.043,0.438-0.851,0.798-1.805,0.798      H68.913C67.957,139.348,67.268,138.988,67.37,138.55 M90.004,138.55l0.207-3.104c0.03-0.421,0.8-0.758,1.722-0.758h14.855      c0.924,0,1.693,0.337,1.723,0.758l0.209,3.104c0.03,0.438-0.719,0.798-1.67,0.798H91.679      C90.725,139.348,89.974,138.988,90.004,138.55 M112.337,135.447c-0.039-0.421,0.678-0.758,1.598-0.758h14.855      c0.925,0,1.752,0.337,1.848,0.758l0.719,3.104c0.102,0.438-0.588,0.798-1.545,0.798h-15.369c-0.949,0-1.76-0.36-1.805-0.798      L112.337,135.447z M111.306,124.748c-0.037-0.353,0.627-0.64,1.473-0.64h13.687c0.853,0,1.606,0.287,1.689,0.64l0.606,2.626      c0.09,0.373-0.552,0.677-1.432,0.677H113.21c-0.875,0-1.617-0.304-1.652-0.677L111.306,124.748z M115.716,129.184      c0.887,0,1.647,0.309,1.699,0.692l0.399,2.849c0.058,0.403-0.637,0.732-1.552,0.732h-14.717c-0.914,0-1.658-0.329-1.66-0.732      l-0.012-2.849c-0.002-0.384,0.713-0.692,1.596-0.692H115.716z M90.754,127.374l0.177-2.626c0.021-0.353,0.732-0.64,1.582-0.64      h13.684c0.848,0,1.558,0.287,1.582,0.64l0.179,2.626c0.023,0.373-0.667,0.677-1.542,0.677H92.298      C91.419,128.05,90.729,127.747,90.754,127.374 M94.615,129.184c0.888,0,1.596,0.309,1.587,0.692l-0.066,2.849      c-0.01,0.403-0.758,0.732-1.674,0.732H79.741c-0.914,0-1.602-0.329-1.538-0.732l0.454-2.849      c0.062-0.384,0.829-0.692,1.713-0.692H94.615z M69.948,127.374l0.606-2.626c0.078-0.353,0.837-0.64,1.685-0.64h13.687      c0.851,0,1.511,0.287,1.478,0.64l-0.252,2.626c-0.036,0.373-0.773,0.677-1.649,0.677H71.378      C70.501,128.05,69.862,127.747,69.948,127.374 M66.345,127.374c-0.096,0.373-0.885,0.677-1.76,0.677H50.462      c-0.875,0-1.465-0.304-1.32-0.677l1.037-2.626c0.14-0.353,0.938-0.64,1.789-0.64h13.687c0.849,0,1.464,0.287,1.372,0.64      L66.345,127.374z M73.515,129.184c0.881,0,1.547,0.309,1.473,0.692l-0.535,2.849c-0.076,0.403-0.879,0.732-1.791,0.732H57.944      c-0.919,0-1.555-0.329-1.424-0.732l0.922-2.849c0.123-0.384,0.941-0.692,1.827-0.692H73.515z M134.128,128.05      c-0.877,0-1.666-0.304-1.764-0.677l-0.687-2.626c-0.091-0.353,0.524-0.64,1.372-0.64h13.688c0.847,0,1.65,0.287,1.788,0.64      l1.04,2.626c0.147,0.373-0.442,0.677-1.321,0.677H134.128z M139.497,132.725c0.122,0.403-0.52,0.732-1.432,0.732h-14.719      c-0.914,0-1.709-0.329-1.777-0.732l-0.479-2.849c-0.066-0.384,0.598-0.692,1.484-0.692h14.244c0.883,0,1.695,0.309,1.814,0.692      L139.497,132.725z M134.467,135.447c-0.11-0.421,0.549-0.758,1.473-0.758h14.855c0.923,0,1.802,0.337,1.968,0.758l1.227,3.104      c0.174,0.438-0.455,0.798-1.412,0.798H137.21c-0.956,0-1.82-0.36-1.935-0.798L134.467,135.447z M184.73,137.178l-15.224-21.104      c-0.178-0.295-0.962-0.531-1.752-0.531H30.788c-0.789,0-1.572,0.236-1.75,0.531L4.376,150.261      c-0.328,0.537,0.281,0.98,1.363,0.98h177.312L184.73,137.178z"/>
			</g>
			<g>
				<path fill="#2E98CB" d="M158.499,94.08c-0.327,0-0.631-0.083-0.874-0.257c-0.17-0.123-0.442-0.387-0.5-0.855l-0.504,0.088      c-0.008-0.045-0.687-4.44,1.047-5.248c1.123-0.524,2.221,0.773,2.581,1.2c1.791,2.131,0.637,3.694,0.239,4.123      C159.925,93.739,159.163,94.08,158.499,94.08z M158.478,92.723c0.198,0.017,0.783-0.18,1.129-0.654      c0.554-0.76,0.09-1.608-0.396-2.188c-0.685-0.812-0.993-0.836-0.996-0.836c-0.269,0.187-0.424,1.473-0.365,2.715l0.827,0.449      C158.539,92.46,158.49,92.63,158.478,92.723z M158.025,81.751c-0.707,0-1.341-0.273-1.812-0.789      c-0.576-0.631-0.822-1.543-0.673-2.467l-0.736-0.252c1.045-3.044,0.754-6.965,0.474-10.758c-0.127-1.712-0.246-3.33-0.246-4.856      c0-0.294-0.03-0.722-0.064-1.229c-0.156-2.29-0.392-5.75,1.062-7.043c0.344-0.307,0.946-0.641,1.866-0.468l0.428,0.079      l0.106,0.422c2.173,8.61,2.365,18.382,0.528,26.81l-0.103,0.47l-0.478,0.059C158.259,81.744,158.141,81.751,158.025,81.751z       M156.167,78.448l0.734,0.159c-0.119,0.546,0.002,1.098,0.314,1.439c0.146,0.16,0.325,0.265,0.531,0.314      c1.635-7.94,1.449-17.04-0.513-25.144c-0.142,0.029-0.234,0.093-0.303,0.154c-0.956,0.852-0.723,4.287-0.61,5.938      c0.037,0.544,0.067,1.005,0.067,1.321c0,1.477,0.118,3.069,0.243,4.756C156.916,71.221,157.209,75.185,156.167,78.448z       M23.351,37.516c-0.573-0.222-0.99-0.694-1.239-1.403c-1.216-3.471,2.035-12.781,2.881-14.231      c2.908-4.983,9.934-8.058,15.349-6.708l-0.328,1.317c-4.788-1.189-11.263,1.646-13.847,6.075      c-0.901,1.545-3.778,10.228-2.772,13.099c0.167,0.477,0.378,0.558,0.447,0.585L23.351,37.516z M16.62,35.464      c-1.341-5.533-0.131-11.548,1.12-15.619c1.587-5.172,4.895-8.776,9.831-10.71l0.323-0.127c5.728-2.263,8.145-2.653,8.909-1.431      l-1.15,0.721c0.011,0.018,0.022,0.027,0.025,0.03c-0.256-0.179-1.477-0.352-7.285,1.943l-0.326,0.129      c-4.532,1.776-7.569,5.088-9.028,9.844c-1.698,5.525-2.088,10.817-1.099,14.901L16.62,35.464z"/>
			</g>
		</g>
	</g>
</g>
</svg>