<?xml version="1.0" encoding="UTF-8"?>
<!-- Generated by IcoMoon.io -->
<!DOCTYPE svg PUBLIC "-//W3C//DTD SVG 1.1//EN" "http://www.w3.org/Graphics/SVG/1.1/DTD/svg11.dtd">
<svg version="1.1" xmlns="http://www.w3.org/2000/svg" xmlns:xlink="http://www.w3.org/1999/xlink" width="512" height="512" viewBox="0 0 512 512">
<g>
</g>
	<path d="M248.893 31.119l29.225 225.095 0.42 1.116c7.465 19.804 3.963 24.678 3.543 25.159-1.474 1.7-7.178 2.796-18.422 0.297-17.234-2.58-30.536 0.256-40.263 8.305-10.68 8.817-16.548 23.664-17.439 44.124l0.195-1.577-4.813 24.002c0 0-55.572 15.933-133.141-26.061l-25.61-18.105 10.005 29.737c19.354 57.538 60.723 81.285 123.136 70.718 6.656-1.116-33.843 44.421-77.865 49.224l2.222 20.357c51.947-5.663 86.733-32.798 103.383-80.661l6.339-18.238-18.657 4.976c-50.8 13.578-89.538 0.236-110.387-30.761 27.433 16.763 73.84 31.324 131.574 17.736l6.4-1.495 1.29-6.462 6.206-30.935 0.164-0.778 0.030-0.798c0.635-14.418 4.004-24.238 10.025-29.225 5.069-4.178 12.984-5.519 23.511-3.963 17.541 3.922 30.075 1.68 37.601-7.014 8.171-9.411 8.223-24.392 0.154-45.793l0.584 2.284-29.102-223.908-20.306 2.642z" fill="#000000"/>
	<path d="M162.816 107.899c21.207 5.079 37.909 3.164 49.633-5.704 11.274-8.499 17.398-22.938 18.238-42.906l-20.459-0.86c-0.573 13.558-3.973 22.794-10.117 27.443-6.615 4.987-17.552 5.704-32.522 2.109l-4.772 19.917z" fill="#000000"/>
	<path d="M343.235 273.705c54.548 48.773 64.788 100.7 31.314 158.771l17.736 10.24c37.99-65.904 25.743-129.618-35.399-184.269l-13.65 15.257z" fill="#000000"/>
	<path d="M373.729 223.539c75.243 52.48 97.904 157.419 50.534 233.943l17.408 10.783c53.012-85.596 27.791-202.916-56.218-261.529l-11.725 16.804z" fill="#000000"/>
	<path d="M308.634 310.057c38.206 32.645 43.377 57.436 21.289 102.062l18.35 9.083c26.44-53.381 19.303-87.716-26.337-126.7l-13.302 15.555z" fill="#000000"/>
</svg>